<svg id="Layer_1" xmlns="http://www.w3.org/2000/svg" viewBox="0 0 225 400"><style>.st0{fill:#ff893d}</style><path class="st0" d="M6.1 3v67.5h215.4V3H6.1zm192.6 50.6H28.8V19.9h169.9v33.7z"/><path class="st0" d="M49.2 28.8h129.2v15.9H49.2zM177 109.9V81.8h-48.9c0 14.7-14.3 13.8-14.3 13.8s-14.3.9-14.3-13.8H50.6v28.1h20.1V98.5s1.7-8.7 7.5-8.7 12.6 8.5 12.6 31.9V145c0 23.3-6.8 31.9-12.6 31.9s-7.5-8.7-7.5-8.7v-11.4H50.6v28.1h48.9c0-14.7 14.3-13.8 14.3-13.8s14.3-.9 14.3 13.8H177v-28.1h-20.1v11.4s-1.7 8.7-7.5 8.7-12.6-8.5-12.6-31.9v-23.3c0-23.3 6.8-31.9 12.6-31.9s7.5 8.7 7.5 8.7v11.4H177zm-63.2 35.7c-6.8 0-12.3-5.5-12.3-12.3 0-6.8 5.5-12.3 12.3-12.3s12.3 5.5 12.3 12.3c-.1 6.8-5.6 12.3-12.3 12.3zM112.5 198.2c-63.9 0-109-11.8-109-11.8v21.2s59.4 12.5 109 12.5 109-12.5 109-12.5v-21.2c0 .1-45.1 11.8-109 11.8z"/><path class="st0" d="M112.7 228.1C49 228.1 4 215.3 4 215.3v14.1s59 13.5 108.5 13.5h.5c49.5-.1 108.5-13.5 108.5-13.5v-14.1s-45 12.8-108.8 12.8zM7 246.3c0-1.1.8-1.7 1.9-1.4l15.6 5.4c1 .4 1.9 1.5 1.8 2.6L22.9 395c0 1.1-.9 2-2 2h-9.1c-1.1 0-2-.9-2-2L7 246.3zM221.4 246.3c0-1.1-.8-1.7-1.9-1.4l-15.6 5.4c-1 .4-1.9 1.5-1.8 2.6l3.5 142.1c0 1.1.9 2 2 2h9.1c1.1 0 2-.9 2-2l2.7-148.7z"/></svg>