<?xml version="1.0" encoding="utf-8"?>
<!-- Generator: Adobe Illustrator 19.2.0, SVG Export Plug-In . SVG Version: 6.00 Build 0)  -->
<svg version="1.1" id="Layer_1" xmlns="http://www.w3.org/2000/svg" xmlns:xlink="http://www.w3.org/1999/xlink" x="0px" y="0px"
	 viewBox="0 0 225 400" style="enable-background:new 0 0 225 400;" xml:space="preserve">
<style type="text/css">
	.st0{fill:#FF893D;}
</style>
<g>
	<path class="st0" d="M6.1,3v67.5h215.4V3H6.1z M198.7,53.6H28.8V19.9h169.9V53.6z"/>
	<rect x="49.2" y="28.8" class="st0" width="129.2" height="15.9"/>
	<path class="st0" d="M177,109.9V81.8h-48.9c0,14.7-14.3,13.8-14.3,13.8s-14.3,0.9-14.3-13.8H50.6v28.1h20.1V98.5
		c0,0,1.7-8.7,7.5-8.7c5.8,0,12.6,8.5,12.6,31.9V145c0,23.3-6.8,31.9-12.6,31.9c-5.8,0-7.5-8.7-7.5-8.7v-11.4H50.6v28.1h48.9
		c0-14.7,14.3-13.8,14.3-13.8s14.3-0.9,14.3,13.8H177v-28.1h-20.1v11.4c0,0-1.7,8.7-7.5,8.7c-5.8,0-12.6-8.5-12.6-31.9v-23.3
		c0-23.3,6.8-31.9,12.6-31.9c5.8,0,7.5,8.7,7.5,8.7v11.4H177z M113.8,145.6c-6.8,0-12.3-5.5-12.3-12.3c0-6.8,5.5-12.3,12.3-12.3
		s12.3,5.5,12.3,12.3C126,140.1,120.5,145.6,113.8,145.6z"/>
	<path class="st0" d="M112.5,198.2L112.5,198.2c-63.9,0-109-11.8-109-11.8v21.2c0,0,59.4,12.5,109,12.5v0c49.6,0,109-12.5,109-12.5
		v-21.2C221.5,186.5,176.4,198.2,112.5,198.2z"/>
	<path class="st0" d="M112.7,228.1C49,228.1,4,215.3,4,215.3v14.1c0,0,59,13.5,108.5,13.5v0c0.1,0,0.2,0,0.2,0c0.1,0,0.2,0,0.3,0v0
		c49.5-0.1,108.5-13.5,108.5-13.5v-14.1C221.5,215.3,176.5,228.1,112.7,228.1z"/>
	<g>
		<path class="st0" d="M7,246.3c0-1.1,0.8-1.7,1.9-1.4l15.6,5.4c1,0.4,1.9,1.5,1.8,2.6L22.9,395c0,1.1-0.9,2-2,2h-9.1
			c-1.1,0-2-0.9-2-2L7,246.3z"/>
	</g>
	<g>
		<path class="st0" d="M221.4,246.3c0-1.1-0.8-1.7-1.9-1.4l-15.6,5.4c-1,0.4-1.9,1.5-1.8,2.6l3.5,142.1c0,1.1,0.9,2,2,2h9.1
			c1.1,0,2-0.9,2-2L221.4,246.3z"/>
	</g>
</g>
</svg>
